# Blender v2.77 (sub 0) OBJ File: 'machine - Copy.blend'
# www.blender.org
mtllib machine.mtl
o Cube
v -0.980785 0.000000 -0.195090
v -0.980785 0.000000 0.195090
v -1.000000 -1.000000 -0.299219
v -1.000000 1.000000 -0.299219
v 1.000000 -1.000000 -0.299219
v 1.000000 1.000000 -0.299219
v -1.000000 1.000000 -1.967443
v -1.000000 -1.000000 -1.967443
v 1.000000 1.000000 -1.967443
v 1.000000 -1.000000 -1.967443
v 2.862362 1.000000 -0.299219
v 2.862362 -1.000000 -0.299219
v 2.862362 1.000000 -1.967443
v 2.862362 -1.000000 -1.967443
v 3.138489 1.000000 -0.299219
v 3.138489 -1.000000 -0.299219
v 3.138489 1.000000 -1.967443
v 3.138489 -1.000000 -1.967443
v 3.136744 1.000000 -0.299219
v 3.136744 -1.000000 -0.299219
v -1.225763 1.000000 -0.299219
v -1.225763 -1.000000 -0.299219
v -1.225763 1.000000 -1.967443
v -1.225763 -1.000000 -1.967443
v 1.000000 -1.000000 -2.247579
v 2.862362 -1.000000 -2.247579
v -1.000000 1.000000 -2.247579
v -1.000000 -1.000000 -2.247579
v 1.000000 1.000000 -2.247579
v 2.862362 1.000000 -2.247579
v -0.980785 0.000000 0.195090
v -0.980785 0.000000 -0.195090
v -1.000000 0.000000 0.000000
v -1.000000 -1.000000 0.299219
v -1.000000 1.000000 0.299219
v 1.000000 -1.000000 0.299219
v 1.000000 1.000000 0.299219
v -1.000000 1.000000 0.000000
v -1.000000 -1.000000 0.000000
v 1.000000 1.000000 0.000000
v 1.000000 -1.000000 0.000000
v -1.000000 1.000000 1.967443
v -1.000000 -1.000000 1.967443
v 1.000000 1.000000 1.967443
v 1.000000 -1.000000 1.967443
v 2.862362 1.000000 0.299219
v 2.862362 -1.000000 0.299219
v 2.862362 -1.000000 0.000000
v 2.862362 1.000000 0.000000
v 2.862362 1.000000 1.967443
v 2.862362 -1.000000 1.967443
v 3.138489 1.000000 0.299219
v 3.138489 -1.000000 0.299219
v 3.138489 1.000000 1.967443
v 3.138489 -1.000000 1.967443
v 3.136744 1.000000 0.299219
v 3.136744 -1.000000 0.299219
v 3.136744 -1.000000 0.000000
v 3.136744 1.000000 0.000000
v -1.225763 1.000000 0.000000
v -1.225763 1.000000 0.299219
v -1.225763 -1.000000 0.299219
v -1.225763 -1.000000 0.000000
v -1.225763 1.000000 1.967443
v -1.225763 -1.000000 1.967443
v 1.000000 -1.000000 2.247579
v 2.862362 -1.000000 2.247579
v -1.000000 1.000000 2.247579
v -1.000000 -1.000000 2.247579
v 1.000000 1.000000 2.247579
v 2.862362 1.000000 2.247579
v 3.962338 1.000000 -0.299219
v 3.962338 -1.000000 -0.299219
v 3.962338 1.000000 -1.967443
v 3.962338 -1.000000 -1.967443
v 3.960593 1.000000 -0.299219
v 3.960593 -1.000000 -0.299219
v 3.960593 -1.000000 0.000000
v 3.960593 1.000000 0.000000
v 3.962338 1.000000 0.299219
v 3.962338 -1.000000 0.299219
v 3.962338 1.000000 1.967443
v 3.962338 -1.000000 1.967443
v 3.960593 1.000000 0.299219
v 3.960593 -1.000000 0.299219
v 3.138489 2.110611 -0.299219
v 3.138489 2.110611 -1.967443
v 3.136744 2.110611 -0.299219
v 3.136744 2.110611 0.000000
v 3.136744 2.110611 0.299219
v 3.960593 2.110611 0.299219
v 3.138489 2.110611 0.299219
v 3.138489 2.110611 1.967443
v 3.962338 2.110611 -0.299219
v 3.962338 2.110611 -1.967443
v 3.960593 2.110611 -0.299219
v 3.960593 2.110611 0.000000
v 3.962338 2.110611 0.299219
v 3.962338 2.110611 1.967443
v 3.539032 3.872807 -0.240352
v 3.588772 3.872807 -0.235453
v 3.539032 2.108246 -0.240352
v 3.539032 2.618159 -0.240352
v 3.588772 2.108246 -0.235453
v 3.588772 2.618159 -0.235453
v 3.636600 2.108246 -0.220944
v 3.636600 2.618159 -0.220944
v 3.680679 2.108246 -0.197384
v 3.680679 2.618159 -0.197384
v 3.719314 2.108246 -0.165677
v 3.719314 2.618159 -0.165677
v 3.751021 2.108246 -0.127041
v 3.751021 2.618159 -0.127041
v 3.774582 2.108246 -0.082963
v 3.774582 2.618159 -0.082963
v 3.789090 2.108246 -0.035135
v 3.789090 2.618159 -0.035135
v 3.793989 2.108246 0.014605
v 3.793989 2.618159 0.014605
v 3.789090 2.108246 0.064345
v 3.789090 2.618159 0.064345
v 3.774582 2.108246 0.112173
v 3.774582 2.618159 0.112173
v 3.751021 2.108246 0.156251
v 3.751021 2.618159 0.156251
v 3.719314 2.108246 0.194887
v 3.719314 2.618159 0.194887
v 3.680679 2.108246 0.226594
v 3.680679 2.618159 0.226594
v 3.636600 2.108246 0.250154
v 3.636600 2.618159 0.250154
v 3.588772 2.108246 0.264663
v 3.588772 2.618159 0.264663
v 3.539032 2.108246 0.269562
v 3.539032 2.618159 0.269562
v 3.489293 2.108246 0.264663
v 3.489293 2.618159 0.264663
v 3.441465 2.108246 0.250154
v 3.441465 2.618159 0.250154
v 3.397386 2.108246 0.226594
v 3.397386 2.618159 0.226594
v 3.358751 2.108246 0.194886
v 3.358751 2.618159 0.194886
v 3.327044 2.108246 0.156251
v 3.327044 2.618159 0.156251
v 3.303483 2.108246 0.112172
v 3.303483 2.618159 0.112172
v 3.288975 2.108246 0.064344
v 3.288975 2.618159 0.064344
v 3.284076 2.108246 0.014605
v 3.284076 2.618159 0.014605
v 3.288975 2.108246 -0.035135
v 3.288975 2.618159 -0.035135
v 3.303483 2.108246 -0.082963
v 3.303483 2.618159 -0.082963
v 3.327044 2.108246 -0.127042
v 3.327044 2.618159 -0.127042
v 3.358751 2.108246 -0.165677
v 3.358751 2.618159 -0.165677
v 3.397386 2.108246 -0.197384
v 3.397386 2.618159 -0.197384
v 3.441465 2.108246 -0.220944
v 3.441465 2.618159 -0.220944
v 3.489293 2.108246 -0.235453
v 3.489293 2.618159 -0.235453
v 3.636600 3.872807 -0.220944
v 3.680679 3.872807 -0.197384
v 3.719314 3.872807 -0.165677
v 3.751021 3.872807 -0.127041
v 3.774582 3.872807 -0.082963
v 3.789090 3.872807 -0.035135
v 3.793989 3.872807 0.014605
v 3.789090 3.872807 0.064345
v 3.774582 3.872807 0.112173
v 3.751021 3.872807 0.156251
v 3.719314 3.872807 0.194887
v 3.680679 3.872807 0.226594
v 3.636600 3.872807 0.250154
v 3.588772 3.872807 0.264663
v 3.539032 3.872807 0.269562
v 3.489293 3.872807 0.264663
v 3.441465 3.872807 0.250154
v 3.397386 3.872807 0.226594
v 3.358751 3.872807 0.194886
v 3.327044 3.872807 0.156251
v 3.303483 3.872807 0.112172
v 3.288975 3.872807 0.064344
v 3.284076 3.872807 0.014605
v 3.288975 3.872807 -0.035135
v 3.303483 3.872807 -0.082963
v 3.327044 3.872807 -0.127042
v 3.358751 3.872807 -0.165677
v 3.397386 3.872807 -0.197384
v 3.441465 3.872807 -0.220944
v 3.489293 3.872807 -0.235453
v 3.175515 3.800457 3.503910
v 3.175515 4.979482 3.503910
v 3.175515 3.800457 -3.551287
v 3.175515 4.979482 -3.551287
v 3.723418 3.800457 3.503910
v 3.723418 4.979482 3.503910
v 3.723418 3.800457 -3.551287
v 3.723418 4.979482 -3.551287
v 0.660091 1.000000 -0.299219
v 0.660091 -1.000000 -0.299219
v 0.660091 1.000000 0.000000
v 0.660091 -1.000000 0.000000
v 0.660091 1.000000 -1.967443
v 0.660091 -1.000000 -1.967443
v 0.660091 1.000000 -2.247579
v 0.660091 -1.000000 -2.247579
v 0.660091 1.000000 0.299219
v 0.660091 -1.000000 0.299219
v 0.660091 1.000000 1.967443
v 0.660091 -1.000000 1.967443
v 0.660091 1.000000 2.247579
v 0.660091 -1.000000 2.247579
v 1.344661 -1.000000 -1.967443
v 1.344661 -1.000000 -0.299219
v 1.344661 1.000000 -0.299219
v 1.344661 1.000000 -1.967443
v 1.344661 1.000000 0.000000
v 1.344661 -1.000000 0.000000
v 1.344661 -1.000000 -2.247579
v 1.344661 1.000000 -2.247579
v 1.344661 -1.000000 1.967443
v 1.344661 -1.000000 0.299219
v 1.344661 1.000000 0.299219
v 1.344661 1.000000 1.967443
v 1.344661 -1.000000 2.247579
v 1.344661 1.000000 2.247579
vt 1.2622 1.1763
vt 1.2622 1.1510
vt 1.2813 1.1510
vt 1.2813 1.1763
vt 0.8388 0.7750
vt 0.8388 0.6348
vt 0.9797 0.6348
vt 0.9797 0.7750
vt 0.8135 0.7750
vt 0.8388 0.8037
vt 0.8135 0.8037
vt 0.1972 0.2030
vt 0.2198 0.2030
vt 0.2198 0.3286
vt 0.1972 0.3286
vt 1.2622 0.8221
vt 1.2622 0.9910
vt 1.2386 0.9910
vt 1.2386 0.8221
vt 0.2198 0.1773
vt 0.3460 0.1773
vt 0.3460 0.2030
vt 0.8388 0.8328
vt 0.9797 0.8328
vt 0.9797 0.9609
vt 0.8388 0.9609
vt 0.3460 0.3286
vt 0.3460 0.3456
vt 0.2198 0.3456
vt 0.2198 0.0364
vt 0.1972 0.0364
vt 0.1972 0.0156
vt 0.2198 0.0156
vt 0.9298 0.9849
vt 0.7889 0.9849
vt 0.7889 0.9616
vt 0.9298 0.9616
vt 0.2198 0.1512
vt 0.1972 0.1512
vt 0.8135 0.8328
vt 0.8135 0.9609
vt 1.2622 1.1769
vt 1.2622 1.3171
vt 1.2386 1.3171
vt 1.2386 1.1769
vt 0.6142 1.1355
vt 0.6377 1.1982
vt 0.5223 1.1955
vt 0.5215 1.1954
vt 1.2855 0.8221
vt 1.2855 0.9910
vt 1.2622 1.1319
vt 1.2855 1.1319
vt 0.4058 1.1940
vt 0.4167 1.1355
vt 0.5206 1.1962
vt 0.5211 1.1968
vt 0.2343 1.1139
vt 0.2596 1.1139
vt 0.2596 1.1370
vt 0.2343 1.1370
vt 0.1735 0.5461
vt 0.1483 0.5464
vt 0.1467 0.3775
vt 0.1720 0.3772
vt 0.0074 0.5477
vt 0.0058 0.3788
vt 0.1972 0.3456
vt 1.2813 1.3171
vt 1.2622 1.4860
vt 1.2813 1.4860
vt 0.5195 0.9306
vt 0.5195 0.9185
vt 0.5904 0.9185
vt 0.5904 0.9306
vt 0.5904 0.9063
vt 0.5195 0.9063
vt 0.5195 0.8525
vt 0.5904 0.8525
vt 0.3672 0.1773
vt 0.3672 0.2030
vt 0.3460 0.1512
vt 0.3460 0.0364
vt 0.3672 0.0364
vt 0.3672 0.1512
vt 1.2622 1.1191
vt 1.2622 1.1482
vt 1.2386 1.1482
vt 1.2386 1.1191
vt 1.2386 1.4860
vt 1.2622 1.1257
vt 1.2813 1.1257
vt 0.7882 0.7750
vt 0.6474 0.7750
vt 0.6474 0.6348
vt 0.7882 0.6348
vt 0.7882 0.8037
vt 0.1745 0.3286
vt 0.1745 0.2030
vt 1.2622 1.4799
vt 1.2386 1.4799
vt 1.2386 1.3110
vt 1.2622 1.3110
vt 0.0483 0.2030
vt 0.0483 0.1773
vt 0.1745 0.1773
vt 0.7882 0.8328
vt 0.7882 0.9609
vt 0.6474 0.9609
vt 0.6474 0.8328
vt 0.1745 0.3456
vt 0.0483 0.3456
vt 0.0483 0.3286
vt 0.1745 0.0364
vt 0.1745 0.0156
vt 0.6474 0.9849
vt 0.6474 0.9616
vt 0.7882 0.9616
vt 0.7882 0.9849
vt 0.1745 0.1512
vt 1.2622 1.1250
vt 1.2386 1.1250
vt 1.2386 0.9849
vt 1.2622 0.9849
vt 1.3551 0.9910
vt 1.3551 1.1319
vt 1.2855 1.3110
vt 1.2855 1.4799
vt 1.2622 1.1701
vt 1.2855 1.1701
vt 0.1291 0.5836
vt 0.1871 0.5836
vt 0.1871 0.6617
vt 0.1291 0.6617
vt 0.2090 1.1370
vt 0.2090 1.1139
vt 0.1972 0.3770
vt 0.1988 0.5459
vt 0.3381 0.3757
vt 0.3397 0.5446
vt 1.2813 0.9849
vt 1.2622 0.8160
vt 1.2813 0.8160
vt 0.1286 0.9983
vt 0.1286 0.8577
vt 0.1525 0.8577
vt 0.1525 0.9983
vt 0.1767 0.8577
vt 0.2834 0.8577
vt 0.2834 0.9983
vt 0.1767 0.9983
vt 0.0271 0.2030
vt 0.0271 0.1773
vt 0.0483 0.1512
vt 0.0271 0.1512
vt 0.0271 0.0364
vt 0.0483 0.0364
vt 1.2622 1.1828
vt 1.2386 1.1828
vt 1.2386 1.1537
vt 1.2622 1.1537
vt 1.2386 0.8160
vt 0.5896 0.4405
vt 0.5896 0.3035
vt 0.7038 0.3035
vt 0.7038 0.4405
vt 0.9898 1.2278
vt 0.9645 1.2278
vt 0.9645 1.0589
vt 0.9898 1.0589
vt 1.4845 0.8110
vt 1.3436 0.8110
vt 1.3436 0.6421
vt 1.4845 0.6421
vt 0.9392 1.2278
vt 0.9392 1.0589
vt 0.6267 1.2568
vt 0.5229 1.1961
vt 1.3551 1.3110
vt 1.3551 1.4799
vt 1.3551 0.8221
vt 0.2343 1.2066
vt 0.2090 1.2066
vt 1.3551 1.1701
vt 0.2596 1.2066
vt 0.5220 1.1968
vt 0.5212 1.1967
vt 0.5222 1.1956
vt 0.5921 0.1127
vt 0.5921 0.2269
vt 0.5357 0.2269
vt 0.5357 0.1127
vt 0.1291 0.7790
vt 0.1871 0.7790
vt 0.5921 0.0367
vt 0.7063 0.0367
vt 0.7063 0.1127
vt 0.1871 0.8571
vt 0.1291 0.8571
vt 0.4294 1.2567
vt 0.0118 0.5836
vt 0.0118 0.6617
vt 0.3044 0.5836
vt 0.3044 0.6617
vt 0.5921 0.3030
vt 0.5357 0.3030
vt 0.4214 0.0367
vt 0.5357 0.0367
vt 0.4214 0.1127
vt 0.3823 0.8943
vt 0.3860 0.8943
vt 0.3860 0.9881
vt 0.3823 0.9881
vt 0.4346 0.8562
vt 0.4346 0.8943
vt 0.4308 0.8943
vt 0.4308 0.8562
vt 0.3524 0.8943
vt 0.3561 0.8943
vt 0.3561 0.9881
vt 0.3524 0.9881
vt 0.4271 0.8943
vt 0.4271 0.8562
vt 0.4421 0.8943
vt 0.4458 0.8943
vt 0.4458 0.9881
vt 0.4421 0.9881
vt 0.4234 0.8943
vt 0.4234 0.8562
vt 0.4271 0.9881
vt 0.4234 0.9881
vt 0.4196 0.8943
vt 0.4196 0.8562
vt 0.3935 0.8943
vt 0.3972 0.8943
vt 0.3972 0.9881
vt 0.3935 0.9881
vt 0.4159 0.8943
vt 0.4159 0.8562
vt 0.3636 0.8943
vt 0.3673 0.8943
vt 0.3673 0.9881
vt 0.3636 0.9881
vt 0.4122 0.8943
vt 0.4122 0.8562
vt 0.4533 0.8943
vt 0.4570 0.8943
vt 0.4570 0.9881
vt 0.4533 0.9881
vt 0.4084 0.8943
vt 0.4084 0.8562
vt 0.4047 0.8943
vt 0.4084 0.9881
vt 0.4047 0.9881
vt 0.4047 0.8562
vt 0.3748 0.8943
vt 0.3785 0.8943
vt 0.3785 0.9881
vt 0.3748 0.9881
vt 0.4010 0.8943
vt 0.4010 0.8562
vt 0.4645 0.8943
vt 0.4682 0.8943
vt 0.4682 0.9881
vt 0.4645 0.9881
vt 0.3972 0.8562
vt 0.4196 0.9881
vt 0.4159 0.9881
vt 0.3935 0.8562
vt 0.3898 0.8943
vt 0.3897 0.9881
vt 0.3898 0.8562
vt 0.3599 0.8943
vt 0.3599 0.9881
vt 0.3860 0.8562
vt 0.4495 0.8943
vt 0.4495 0.9881
vt 0.3823 0.8562
vt 0.4383 0.8943
vt 0.4383 0.9881
vt 0.4346 0.9881
vt 0.3785 0.8562
vt 0.4308 0.9881
vt 0.3748 0.8562
vt 0.4010 0.9881
vt 0.3711 0.8943
vt 0.3711 0.8562
vt 0.3711 0.9881
vt 0.3673 0.8562
vt 0.4607 0.8943
vt 0.4607 0.9881
vt 0.3636 0.8562
vt 0.4122 0.9881
vt 0.3599 0.8562
vt 0.3561 0.8562
vt 0.4719 0.8943
vt 0.4719 0.9881
vt 0.3524 0.8562
vt 0.4719 0.8562
vt 0.4682 0.8562
vt 0.4645 0.8562
vt 0.4810 0.3668
vt 0.4810 0.7444
vt 0.4512 0.7444
vt 0.4512 0.3668
vt 0.4607 0.8562
vt 0.9482 0.5754
vt 0.9482 -0.0009
vt 0.9937 -0.0009
vt 0.9937 0.5754
vt 0.4570 0.8562
vt 0.4501 0.6595
vt 0.4202 0.6595
vt 0.4202 0.5964
vt 0.4501 0.5964
vt 0.4533 0.8562
vt 0.9482 -0.0009
vt 0.9482 0.5754
vt 0.8503 0.5754
vt 0.8503 -0.0009
vt 0.4495 0.8562
vt 0.4202 0.5333
vt 0.4501 0.5333
vt 0.4501 0.5964
vt 0.4202 0.5964
vt 0.4458 0.8562
vt 0.7524 0.5754
vt 0.7524 -0.0009
vt 0.8503 -0.0009
vt 0.8503 0.5754
vt 0.4421 0.8562
vt 1.3742 0.0302
vt 1.3707 0.0279
vt 1.3677 0.0249
vt 1.3653 0.0214
vt 1.3637 0.0175
vt 1.3629 0.0133
vt 1.3629 0.0091
vt 1.3637 0.0050
vt 1.3653 0.0011
vt 1.3677 -0.0024
vt 1.3707 -0.0054
vt 1.3742 -0.0078
vt 1.3781 -0.0094
vt 1.3822 -0.0102
vt 1.3864 -0.0102
vt 1.3906 -0.0094
vt 1.3945 -0.0078
vt 1.3980 -0.0054
vt 1.4010 -0.0024
vt 1.4033 0.0011
vt 1.4049 0.0050
vt 1.4057 0.0091
vt 1.4057 0.0133
vt 1.4049 0.0175
vt 1.4033 0.0214
vt 1.4010 0.0249
vt 1.3980 0.0279
vt 1.3945 0.0302
vt 1.3906 0.0318
vt 1.3864 0.0326
vt 1.3822 0.0326
vt 1.3781 0.0318
vt 0.4383 0.8562
vt 0.3666 1.0376
vt 0.3701 1.0399
vt 0.3731 1.0429
vt 0.3755 1.0464
vt 0.3771 1.0503
vt 0.3779 1.0544
vt 0.3779 1.0587
vt 0.3771 1.0628
vt 0.3755 1.0667
vt 0.3731 1.0702
vt 0.3701 1.0732
vt 0.3666 1.0755
vt 0.3627 1.0772
vt 0.3586 1.0780
vt 0.3544 1.0780
vt 0.3502 1.0772
vt 0.3463 1.0755
vt 0.3428 1.0732
vt 0.3398 1.0702
vt 0.3375 1.0667
vt 0.3359 1.0628
vt 0.3351 1.0587
vt 0.3351 1.0544
vt 0.3359 1.0503
vt 0.3375 1.0464
vt 0.3398 1.0429
vt 0.3428 1.0399
vt 0.3463 1.0376
vt 0.3502 1.0359
vt 0.3544 1.0351
vt 0.3586 1.0351
vt 0.3627 1.0359
vt 0.0271 0.3286
vt 0.0118 0.9983
vt 0.0118 0.8577
vt 0.1972 0.1773
vt 0.8135 0.6348
vt 0.6474 0.8037
vt 0.3672 0.3286
vt 0.5195 0.9894
vt 0.5904 0.9894
vt 0.9797 0.8037
vn 0.0000 -1.0000 0.0000
vn 0.0000 1.0000 0.0000
vn 1.0000 0.0000 0.0000
vn 0.0000 0.0000 -1.0000
vn -1.0000 0.0000 0.0000
vn 0.0000 0.0000 1.0000
vn 0.4714 0.0000 0.8819
vn 0.0980 0.0000 -0.9952
vn -0.8819 0.0000 0.4714
vn 0.2903 0.0000 -0.9569
vn -0.4714 0.0000 -0.8819
vn 0.4714 0.0000 -0.8819
vn 0.6344 0.0000 -0.7730
vn 0.8819 0.0000 0.4714
vn 0.7730 0.0000 -0.6344
vn -0.4714 0.0000 0.8819
vn 0.8819 0.0000 -0.4714
vn -0.8819 0.0000 -0.4714
vn 0.9569 0.0000 -0.2903
vn 0.9952 0.0000 -0.0980
vn 0.0980 0.0000 0.9952
vn 0.9952 0.0000 0.0980
vn -0.9952 0.0000 0.0980
vn 0.9569 0.0000 0.2903
vn 0.6344 0.0000 0.7730
vn 0.7730 0.0000 0.6344
vn -0.7730 0.0000 0.6344
vn -0.6344 0.0000 -0.7730
vn -0.0980 0.0000 -0.9952
vn 0.2903 0.0000 0.9569
vn -0.0980 0.0000 0.9952
vn -0.2903 0.0000 0.9569
vn -0.9569 0.0000 -0.2903
vn -0.6344 0.0000 0.7730
vn -0.9569 0.0000 0.2903
vn -0.2903 0.0000 -0.9569
vn -0.9952 0.0000 -0.0980
vn -0.7730 0.0000 -0.6344
usemtl Material
s off
f 3/1/1 39/2/1 63/3/1 22/4/1
f 205/5/1 3/6/1 8/7/1 209/8/1
f 207/9/1 205/5/1 5/10/1 41/11/1
f 206/12/2 204/13/2 4/14/2 38/15/2
f 13/16/3 14/17/3 26/18/3 30/19/3
f 204/13/2 6/20/2 9/21/2 208/22/2
f 219/23/1 218/24/1 14/25/1 12/26/1
f 4/14/2 7/27/2 23/28/2 21/29/2
f 11/30/2 49/31/2 59/32/2 19/33/2
f 13/34/2 11/35/2 15/36/2 17/37/2
f 220/38/2 222/39/2 49/31/2 11/30/2
f 223/40/1 219/23/1 12/26/1 48/41/1
f 209/42/1 8/43/1 28/44/1 211/45/1
f 84/46/3 79/47/3 97/48/3 91/49/3
f 14/17/4 13/16/4 17/50/4 18/51/4
f 12/52/1 14/17/1 18/51/1 16/53/1
f 59/54/5 56/55/5 90/56/5 89/57/5
f 48/58/1 12/59/1 20/60/1 58/61/1
f 60/62/5 21/63/5 22/64/5 63/65/5
f 22/64/5 21/63/5 23/66/5 24/67/5
f 38/15/2 4/14/2 21/29/2 60/68/2
f 8/43/1 3/1/1 22/4/1 24/69/1
f 7/70/4 8/43/4 24/69/4 23/71/4
f 210/72/4 29/73/4 25/74/4 211/75/4
f 224/76/4 225/77/4 30/78/4 26/79/4
f 208/22/2 9/21/2 29/80/2 210/81/2
f 221/82/2 13/83/2 30/84/2 225/85/2
f 218/86/1 10/87/1 25/88/1 224/89/1
f 8/43/5 7/70/5 27/90/5 28/44/5
f 34/91/1 62/92/1 63/3/1 39/2/1
f 213/93/1 215/94/1 43/95/1 34/96/1
f 207/9/1 41/11/1 36/97/1 213/93/1
f 206/12/2 38/15/2 35/98/2 212/99/2
f 50/100/3 71/101/3 67/102/3 51/103/3
f 212/99/2 214/104/2 44/105/2 37/106/2
f 227/107/1 47/108/1 51/109/1 226/110/1
f 35/98/2 61/111/2 64/112/2 42/113/2
f 46/114/2 56/115/2 59/32/2 49/31/2
f 50/116/2 54/117/2 52/118/2 46/119/2
f 228/120/2 46/114/2 49/31/2 222/39/2
f 223/40/1 48/41/1 47/108/1 227/107/1
f 215/121/1 217/122/1 69/123/1 43/124/1
f 16/53/1 18/51/1 75/125/1 73/126/1
f 51/103/6 55/127/6 54/128/6 50/100/6
f 47/129/1 53/130/1 55/127/1 51/103/1
f 15/131/6 72/132/6 94/133/6 86/134/6
f 48/58/1 58/61/1 57/135/1 47/136/1
f 60/62/5 63/65/5 62/137/5 61/138/5
f 62/137/5 65/139/5 64/140/5 61/138/5
f 38/15/2 60/68/2 61/111/2 35/98/2
f 43/124/1 65/141/1 62/92/1 34/91/1
f 42/142/6 64/143/6 65/141/6 43/124/6
f 216/144/6 217/145/6 66/146/6 70/147/6
f 230/148/6 67/149/6 71/150/6 231/151/6
f 214/104/2 216/152/2 70/153/2 44/105/2
f 229/154/2 231/155/2 71/156/2 50/157/2
f 226/158/1 230/159/1 66/160/1 45/161/1
f 43/124/5 69/123/5 68/162/5 42/142/5
f 72/163/3 73/164/3 75/165/3 74/166/3
f 76/167/3 79/168/3 78/169/3 77/170/3
f 80/171/3 82/172/3 83/173/3 81/174/3
f 84/175/3 85/176/3 78/169/3 79/168/3
f 79/47/3 76/177/3 96/178/3 97/48/3
f 54/128/6 55/127/6 83/179/6 82/180/6
f 18/51/4 17/50/4 74/181/4 75/125/4
f 57/135/1 58/61/1 78/182/1 85/183/1
f 55/127/1 53/130/1 81/184/1 83/179/1
f 58/61/1 20/60/1 77/185/1 78/182/1
f 88/186/2 89/187/2 97/188/2 96/178/2
f 92/189/2 93/190/2 99/191/2 98/192/2
f 89/187/2 90/56/2 91/49/2 97/188/2
f 87/193/2 86/134/2 94/133/2 95/194/2
f 52/195/5 54/196/5 93/197/5 92/189/5
f 74/198/4 17/199/4 87/193/4 95/194/4
f 19/200/5 59/54/5 89/57/5 88/186/5
f 17/201/5 15/131/5 86/134/5 87/202/5
f 56/55/6 84/46/6 91/49/6 90/56/6
f 72/132/3 74/203/3 95/204/3 94/133/3
f 54/205/6 82/206/6 99/191/6 93/190/6
f 82/207/3 80/208/3 98/192/3 99/209/3
f 80/208/4 52/195/4 92/189/4 98/192/4
f 76/177/4 19/200/4 88/186/4 96/178/4
f 131/210/7 129/211/7 177/212/7 178/213/7
f 102/214/8 103/215/8 105/216/8 104/217/8
f 147/218/9 145/219/9 185/220/9 186/221/9
f 104/217/10 105/216/10 107/222/10 106/223/10
f 163/224/11 161/225/11 193/226/11 194/227/11
f 106/223/12 107/222/12 109/228/12 108/229/12
f 109/228/12 107/222/12 166/230/12 167/231/12
f 108/229/13 109/228/13 111/232/13 110/233/13
f 125/234/14 123/235/14 174/236/14 175/237/14
f 110/233/15 111/232/15 113/238/15 112/239/15
f 141/240/16 139/241/16 182/242/16 183/243/16
f 112/239/17 113/238/17 115/244/17 114/245/17
f 157/246/18 155/247/18 190/248/18 191/249/18
f 114/245/19 115/244/19 117/250/19 116/251/19
f 119/252/20 117/250/20 171/253/20 172/254/20
f 116/251/20 117/250/20 119/252/20 118/255/20
f 135/256/21 133/257/21 179/258/21 180/259/21
f 118/255/22 119/252/22 121/260/22 120/261/22
f 151/262/23 149/263/23 187/264/23 188/265/23
f 120/261/24 121/260/24 123/235/24 122/266/24
f 113/238/15 111/232/15 168/267/15 169/268/15
f 122/266/14 123/235/14 125/234/14 124/269/14
f 129/211/25 127/270/25 176/271/25 177/212/25
f 124/269/26 125/234/26 127/270/26 126/272/26
f 145/219/27 143/273/27 184/274/27 185/220/27
f 126/272/25 127/270/25 129/211/25 128/275/25
f 161/225/28 159/276/28 192/277/28 193/226/28
f 128/275/7 129/211/7 131/210/7 130/278/7
f 103/215/29 165/279/29 195/280/29 100/281/29
f 130/278/30 131/210/30 133/257/30 132/282/30
f 107/222/10 105/216/10 101/283/10 166/230/10
f 132/282/21 133/257/21 135/256/21 134/284/21
f 123/235/24 121/260/24 173/285/24 174/236/24
f 134/284/31 135/256/31 137/286/31 136/287/31
f 139/241/32 137/286/32 181/288/32 182/242/32
f 136/287/32 137/286/32 139/241/32 138/289/32
f 155/247/33 153/290/33 189/291/33 190/248/33
f 138/289/16 139/241/16 141/240/16 140/292/16
f 117/250/19 115/244/19 170/293/19 171/253/19
f 140/292/34 141/240/34 143/273/34 142/294/34
f 133/257/30 131/210/30 178/213/30 179/258/30
f 142/294/27 143/273/27 145/219/27 144/295/27
f 149/263/35 147/296/35 186/297/35 187/264/35
f 144/295/9 145/219/9 147/218/9 146/298/9
f 165/279/36 163/224/36 194/227/36 195/280/36
f 146/299/35 147/296/35 149/263/35 148/300/35
f 111/232/13 109/228/13 167/231/13 168/267/13
f 148/300/23 149/263/23 151/262/23 150/301/23
f 201/302/2 203/303/2 199/304/2 197/305/2
f 127/270/26 125/234/26 175/237/26 176/271/26
f 150/301/37 151/262/37 153/290/37 152/306/37
f 196/307/1 198/308/1 202/309/1 200/310/1
f 143/273/34 141/240/34 183/243/34 184/274/34
f 152/306/33 153/290/33 155/247/33 154/311/33
f 201/312/6 197/313/6 196/314/6 200/315/6
f 159/276/38 157/246/38 191/249/38 192/277/38
f 154/311/18 155/247/18 157/246/18 156/316/18
f 203/317/3 201/318/3 200/319/3 202/320/3
f 121/260/22 119/252/22 172/254/22 173/285/22
f 156/316/38 157/246/38 159/276/38 158/321/38
f 199/322/4 203/323/4 202/324/4 198/325/4
f 137/286/31 135/256/31 180/259/31 181/288/31
f 158/321/28 159/276/28 161/225/28 160/326/28
f 197/327/5 199/328/5 198/329/5 196/330/5
f 153/290/37 151/262/37 188/265/37 189/291/37
f 160/326/11 161/225/11 163/224/11 162/331/11
f 105/216/8 103/215/8 100/281/8 101/283/8
f 101/332/2 100/333/2 195/334/2 194/335/2 193/336/2 192/337/2 191/338/2 190/339/2 189/340/2 188/341/2 187/342/2 186/343/2 185/344/2 184/345/2 183/346/2 182/347/2 181/348/2 180/349/2 179/350/2 178/351/2 177/352/2 176/353/2 175/354/2 174/355/2 173/356/2 172/357/2 171/358/2 170/359/2 169/360/2 168/361/2 167/362/2 166/363/2
f 162/331/36 163/224/36 165/279/36 164/364/36
f 115/244/17 113/238/17 169/268/17 170/293/17
f 164/364/29 165/279/29 103/215/29 102/214/29
f 102/365/1 104/366/1 106/367/1 108/368/1 110/369/1 112/370/1 114/371/1 116/372/1 118/373/1 120/374/1 122/375/1 124/376/1 126/377/1 128/378/1 130/379/1 132/380/1 134/381/1 136/382/1 138/383/1 140/384/1 142/385/1 144/386/1 146/387/1 148/388/1 150/389/1 152/390/1 154/391/1 156/392/1 158/393/1 160/394/1 162/395/1 164/396/1
f 42/113/2 68/397/2 216/152/2 214/104/2
f 68/398/6 69/399/6 217/145/6 216/144/6
f 45/161/1 66/160/1 217/122/1 215/121/1
f 40/400/2 206/12/2 212/99/2 37/106/2
f 39/401/1 207/9/1 213/93/1 34/96/1
f 36/97/1 45/402/1 215/94/1 213/93/1
f 7/27/2 208/22/2 210/81/2 27/403/2
f 27/404/4 210/72/4 211/75/4 28/405/4
f 10/87/1 209/42/1 211/45/1 25/88/1
f 40/400/2 6/20/2 204/13/2 206/12/2
f 39/401/1 3/6/1 205/5/1 207/9/1
f 5/10/1 205/5/1 209/8/1 10/406/1
f 51/103/1 67/102/1 230/159/1 226/158/1
f 44/105/2 70/153/2 231/155/2 229/154/2
f 66/146/6 230/148/6 231/151/6 70/147/6
f 41/11/1 223/40/1 227/107/1 36/97/1
f 37/106/2 228/120/2 222/39/2 40/400/2
f 36/97/1 227/107/1 226/110/1 45/402/1
f 44/105/2 229/154/2 228/120/2 37/106/2
f 14/17/1 218/86/1 224/89/1 26/18/1
f 9/21/2 221/82/2 225/85/2 29/80/2
f 25/74/4 29/73/4 225/77/4 224/76/4
f 41/11/1 5/10/1 219/23/1 223/40/1
f 6/20/2 40/400/2 222/39/2 220/38/2
f 5/10/1 10/406/1 218/24/1 219/23/1
f 9/21/2 6/20/2 220/38/2 221/82/2
l 33 1
l 33 2
l 33 31
l 33 32
